<svg width="33" height="32" viewBox="0 0 33 32" fill="none" xmlns="http://www.w3.org/2000/svg">
<g id="user-plus-duotone 1" clip-path="url(#clip0_23_1563)">
<path id="Vector" opacity="0.2" d="M16.5 20C20.9183 20 24.5 16.4183 24.5 12C24.5 7.58172 20.9183 4 16.5 4C12.0817 4 8.5 7.58172 8.5 12C8.5 16.4183 12.0817 20 16.5 20Z" fill="#0A65CC"/>
<path id="Vector_2" d="M22.5 7H28.5" stroke="#0A65CC" stroke-width="2" stroke-linecap="round" stroke-linejoin="round"/>
<path id="Vector_3" d="M25.5 4V10" stroke="#0A65CC" stroke-width="2" stroke-linecap="round" stroke-linejoin="round"/>
<path id="Vector_4" d="M4.37367 26.9988C5.60312 24.8708 7.37094 23.1037 9.49953 21.8752C11.6281 20.6467 14.0425 20 16.5002 20C18.9579 20 21.3722 20.6468 23.5008 21.8754C25.6294 23.1039 27.3972 24.871 28.6266 26.9991" stroke="#0A65CC" stroke-width="2" stroke-linecap="round" stroke-linejoin="round"/>
<path id="Vector_5" d="M24.0064 14.7728C23.4716 16.2167 22.5314 17.4754 21.2986 18.3979C20.0658 19.3203 18.5929 19.8672 17.0568 19.9728C15.5207 20.0784 13.9868 19.7383 12.6394 18.9933C11.2919 18.2483 10.1883 17.1301 9.46091 15.773C8.73356 14.416 8.41349 12.8778 8.53916 11.3432C8.66483 9.80864 9.23089 8.34301 10.1693 7.12236C11.1078 5.90172 12.3787 4.97798 13.8294 4.46212C15.2801 3.94627 16.8489 3.86023 18.3473 4.21436" stroke="#148014" stroke-width="2" stroke-linecap="round" stroke-linejoin="round"/>
</g>
<defs>
<clipPath id="clip0_23_1563">
<rect width="32" height="32" fill="white" transform="translate(0.5)"/>
</clipPath>
</defs>
</svg>
