<svg width="33" height="32" viewBox="0 0 33 32" fill="none" xmlns="http://www.w3.org/2000/svg">
<g id="cloud-arrow-up-duotone 1" clip-path="url(#clip0_23_1575)">
<path id="Vector" opacity="0.2" d="M10.5 15.9981C10.5 14.0202 11.0865 12.0868 12.1854 10.4423C13.2842 8.79786 14.846 7.51613 16.6732 6.75926C18.5005 6.00238 20.5111 5.80435 22.4509 6.1902C24.3908 6.57605 26.1726 7.52846 27.5711 8.92698C28.9696 10.3255 29.922 12.1073 30.3079 14.0471C30.6938 15.987 30.4957 17.9976 29.7388 19.8249C28.982 21.6521 27.7002 23.2139 26.0557 24.3127C24.4113 25.4116 22.4779 25.9981 20.5 25.9981H9.50005C8.50734 25.9971 7.5262 25.785 6.62173 25.3758C5.71727 24.9667 4.91017 24.3698 4.25402 23.6249C3.59786 22.88 3.10765 22.004 2.81593 21.0551C2.52421 20.1063 2.43764 19.1062 2.56198 18.1213C2.68631 17.1364 3.01871 16.1892 3.5371 15.3426C4.05549 14.496 4.74802 13.7694 5.56873 13.2109C6.38943 12.6524 7.31954 12.2749 8.29731 12.1033C9.27508 11.9318 10.2782 11.9702 11.24 12.216" fill="#F1F2F4"/>
<path id="Vector_2" d="M12.4993 25.998H9.49931C8.50661 25.9971 7.52547 25.785 6.621 25.3758C5.71654 24.9667 4.90944 24.3698 4.25329 23.6249C3.59713 22.88 3.10692 22.004 2.8152 21.0551C2.52347 20.1063 2.43691 19.1062 2.56124 18.1213C2.68558 17.1364 3.01797 16.1892 3.53637 15.3426C4.05476 14.496 4.74729 13.7694 5.56799 13.2109C6.3887 12.6524 7.3188 12.2749 8.29658 12.1033C9.27435 11.9318 10.2774 11.9702 11.2392 12.216" stroke="#F1F2F4" stroke-width="2" stroke-linecap="round" stroke-linejoin="round"/>
<path id="Vector_3" d="M10.4993 15.998C10.4994 14.4136 10.8761 12.8518 11.5982 11.4415C12.3203 10.0312 13.3672 8.81262 14.6527 7.88625C15.9381 6.95988 17.4253 6.35221 18.9916 6.11333C20.5579 5.87445 22.1586 6.01118 23.6618 6.51227C25.1649 7.01335 26.5275 7.86445 27.6372 8.99541C28.7468 10.1264 29.5719 11.5048 30.0444 13.0172C30.5168 14.5296 30.6231 16.1326 30.3546 17.6941C30.086 19.2557 29.4502 20.731 28.4996 21.9986" stroke="#F1F2F4" stroke-width="2" stroke-linecap="round" stroke-linejoin="round"/>
<path id="Vector_4" d="M15.2566 20.2408L19.4992 15.998L23.7418 20.2408" stroke="#F1F2F4" stroke-width="2" stroke-linecap="round" stroke-linejoin="round"/>
<path id="Vector_5" d="M19.4993 25.998V15.998" stroke="#F1F2F4" stroke-width="2" stroke-linecap="round" stroke-linejoin="round"/>
</g>
<defs>
<clipPath id="clip0_23_1575">
<rect width="32" height="32" fill="white" transform="translate(0.5)"/>
</clipPath>
</defs>
</svg>
